<?xml version="1.0" encoding="UTF-8" standalone="no"?>
<svg width="32px" height="31px" viewBox="0 0 32 31" version="1.1" xmlns="http://www.w3.org/2000/svg" xmlns:xlink="http://www.w3.org/1999/xlink" xmlns:sketch="http://www.bohemiancoding.com/sketch/ns">
    <!-- Generator: Sketch 3.2.2 (9983) - http://www.bohemiancoding.com/sketch -->
    <title>facebook</title>
    <desc>Created with Sketch.</desc>
    <defs></defs>
    <g id="Welcome" stroke="none" stroke-width="1" fill="none" fill-rule="evenodd" sketch:type="MSPage">
        <g id="Desktop-HD" sketch:type="MSArtboardGroup" transform="translate(-628.000000, -668.000000)" fill="#43619C">
            <g id="Social" sketch:type="MSLayerGroup" transform="translate(628.000000, 666.000000)">
                <path d="M31.9,30.7606557 C31.9,31.6622951 31.1418478,32.4 30.2152174,32.4 L22.2967391,32.4 L22.2967391,20.7606557 L26.3402174,20.7606557 L26.9298913,16.252459 L22.2967391,16.252459 L22.2967391,13.3836066 C22.2967391,12.0721311 22.6336957,11.1704918 24.5711957,11.1704918 L27.0141304,11.1704918 L27.0141304,7.07213115 C26.5929348,6.99016393 25.1608696,6.90819672 23.3918478,6.90819672 C19.8538043,6.90819672 17.4108696,9.03934426 17.4108696,12.8918033 L17.4108696,16.252459 L13.3673913,16.252459 L13.3673913,20.7606557 L17.4108696,20.7606557 L17.4108696,32.4 L2.58478261,32.4 C1.65815217,32.4 0.9,31.6622951 0.9,30.7606557 L0.9,4.03934426 C0.9,3.13770492 1.65815217,2.4 2.58478261,2.4 L30.1309783,2.4 C31.0576087,2.4 31.8157609,3.13770492 31.8157609,4.03934426 L31.8157609,30.7606557 L31.9,30.7606557 Z" id="facebook" sketch:type="MSShapeGroup"></path>
            </g>
        </g>
    </g>
</svg>