<?xml version="1.0" encoding="UTF-8" standalone="no"?>
<svg width="32px" height="31px" viewBox="0 0 32 31" version="1.1" xmlns="http://www.w3.org/2000/svg" xmlns:xlink="http://www.w3.org/1999/xlink" xmlns:sketch="http://www.bohemiancoding.com/sketch/ns">
    <!-- Generator: Sketch 3.2.2 (9983) - http://www.bohemiancoding.com/sketch -->
    <title>github</title>
    <desc>Created with Sketch.</desc>
    <defs></defs>
    <g id="Welcome" stroke="none" stroke-width="1" fill="none" fill-rule="evenodd" sketch:type="MSPage">
        <g id="Mobile-Portrait" sketch:type="MSArtboardGroup" transform="translate(-226.000000, -651.000000)" fill="#4A4A4A">
            <g id="Social" sketch:type="MSLayerGroup" transform="translate(68.000000, 650.000000)">
                <path d="M158.579,17.154947 C158.579,23.9499401 163.019805,29.7139296 169.17908,31.7476124 C169.954579,31.8892338 170.237185,31.4143302 170.237185,31.0064606 C170.237185,30.6420216 170.223863,29.6742757 170.216251,28.3911861 C165.904854,29.3202222 164.995188,26.329179 164.995188,26.329179 C164.290102,24.552303 163.273865,24.0792876 163.273865,24.0792876 C161.866547,23.1257037 163.380437,23.1445866 163.380437,23.1445866 C164.936193,23.253163 165.754512,24.7298017 165.754512,24.7298017 C167.13709,27.0797722 169.382708,26.4009338 170.265731,26.0072264 C170.406558,25.0139886 170.807153,24.3360943 171.249616,23.9518284 C167.80792,23.5637858 164.18924,22.2438747 164.18924,16.3505377 C164.18924,14.6718524 164.793463,13.2981252 165.784961,12.2236911 C165.625103,11.8347044 165.093196,10.2702604 165.937206,8.15349307 C165.937206,8.15349307 167.237952,7.73995869 170.199123,9.73021093 C171.435165,9.38843137 172.761602,9.21848574 174.079476,9.21187674 C175.396398,9.21848574 176.721883,9.38843137 177.959828,9.73021093 C180.919096,7.73995869 182.217939,8.15349307 182.217939,8.15349307 C183.063852,10.2702604 182.531945,11.8347044 182.373039,12.2236911 C183.36644,13.2981252 183.965906,14.6718524 183.965906,16.3505377 C183.965906,22.258981 180.341516,23.5590651 176.889353,23.9395545 C177.445049,24.4144582 177.940797,25.3529357 177.940797,26.7880322 C177.940797,28.8434303 177.921767,30.5022886 177.921767,31.0064606 C177.921767,31.4181067 178.201518,31.8967869 178.987484,31.7466683 C185.142001,29.7082648 189.579,23.9480518 189.579,17.154947 C189.579,8.66049756 182.638517,1.77486681 174.077573,1.77486681 C165.519483,1.77486681 158.579,8.66049756 158.579,17.154947 Z" id="github" sketch:type="MSShapeGroup"></path>
            </g>
        </g>
    </g>
</svg>