<?xml version="1.0" encoding="UTF-8" standalone="no"?>
<svg width="48px" height="30px" viewBox="0 0 48 30" version="1.1" xmlns="http://www.w3.org/2000/svg" xmlns:xlink="http://www.w3.org/1999/xlink" xmlns:sketch="http://www.bohemiancoding.com/sketch/ns">
    <!-- Generator: Sketch 3.2.2 (9983) - http://www.bohemiancoding.com/sketch -->
    <title>google</title>
    <desc>Created with Sketch.</desc>
    <defs></defs>
    <g id="Welcome" stroke="none" stroke-width="1" fill="none" fill-rule="evenodd" sketch:type="MSPage">
        <g id="Desktop-HD" sketch:type="MSArtboardGroup" transform="translate(-775.000000, -668.000000)" fill="#9E2424">
            <g id="Social" sketch:type="MSLayerGroup" transform="translate(628.000000, 666.000000)">
                <g id="google" transform="translate(147.000000, 2.000000)" sketch:type="MSShapeGroup">
                    <path d="M15.6878049,11.7692308 L15.6878049,17.6538462 L23.7658537,17.6538462 C22.4780488,21.4615385 20.4878049,23.5384615 15.6878049,23.5384615 C10.7707317,23.5384615 6.90731707,19.6153846 6.90731707,14.7692308 C6.90731707,9.92307692 10.7707317,6 15.6878049,6 C18.2634146,6 20.0195122,6.92307692 21.5414634,8.19230769 C22.8292683,6.92307692 22.7121951,6.80769231 25.7560976,3.92307692 C23.0634146,1.5 19.5512195,0.115384615 15.6878049,0.115384615 C7.37560976,0.115384615 0.702439024,6.69230769 0.702439024,14.8846154 C0.702439024,23.0769231 7.37560976,29.6538462 15.6878049,29.6538462 C28.097561,29.6538462 31.1414634,19.0384615 30.0878049,11.8846154 L15.6878049,11.8846154 L15.6878049,11.7692308 Z" id="Shape"></path>
                    <path d="M42.7317073,12.1153846 L42.7317073,6.92307692 L39.102439,6.92307692 L39.102439,12.1153846 L33.7170732,12.1153846 L33.7170732,15.6923077 L39.102439,15.6923077 L39.102439,21 L42.7317073,21 L42.7317073,15.6923077 L48,15.6923077 L48,12.1153846 L42.7317073,12.1153846 Z" id="Shape"></path>
                </g>
            </g>
        </g>
    </g>
</svg>