<?xml version="1.0" encoding="UTF-8" standalone="no"?>
<svg width="38px" height="33px" viewBox="0 0 38 33" version="1.1" xmlns="http://www.w3.org/2000/svg" xmlns:xlink="http://www.w3.org/1999/xlink" xmlns:sketch="http://www.bohemiancoding.com/sketch/ns">
    <!-- Generator: Sketch 3.2.2 (9983) - http://www.bohemiancoding.com/sketch -->
    <title>linkedin</title>
    <desc>Created with Sketch.</desc>
    <defs></defs>
    <g id="Welcome" stroke="none" stroke-width="1" fill="none" fill-rule="evenodd" sketch:type="MSPage">
        <g id="Desktop-HD" sketch:type="MSArtboardGroup" transform="translate(-705.000000, -666.000000)" fill="#4C768E">
            <g id="Social" sketch:type="MSLayerGroup" transform="translate(628.000000, 666.000000)">
                <g id="linkedin" transform="translate(77.000000, 0.000000)" sketch:type="MSShapeGroup">
                    <rect id="Rectangle-path" x="1.3" y="10.4823529" width="7.2" height="22.1294118"></rect>
                    <path d="M28.1,10.2882353 C24,10.2882353 21.4,12.4235294 20.9,13.9764706 L20.9,10.4823529 L12.8,10.4823529 C12.9,12.3264706 12.8,32.6117647 12.8,32.6117647 L20.9,32.6117647 L20.9,20.6735294 C20.9,19.9941176 20.9,19.3147059 21.1,18.8294118 C21.7,17.4705882 22.8,16.1117647 25,16.1117647 C27.8,16.1117647 29.1,18.15 29.1,21.1588235 L29.1,32.6117647 L37.3,32.6117647 L37.3,20.2852941 C37.2,13.4911765 33.2,10.2882353 28.1,10.2882353 L28.1,10.2882353 Z" id="Shape"></path>
                    <path d="M4.7,0.0970588235 C2,0.0970588235 0.3,1.74705882 0.3,3.97941176 C0.3,6.11470588 2,7.76470588 4.6,7.76470588 L4.7,7.76470588 C7.4,7.76470588 9.1,6.11470588 9.1,3.88235294 C9,1.74705882 7.4,0.0970588235 4.7,0.0970588235 L4.7,0.0970588235 Z" id="Shape"></path>
                </g>
            </g>
        </g>
    </g>
</svg>